#!OML:ASF E:\motion texture\Top Level 1\Subject 1\Session 1\male.ASF
:FULLY-SPECIFIED
:DEGREES
574
root -28.3046 18.1611 3.07413 1196.6 -77.1542 -1197.34
lowerback 3.85171 2.59357 10.7286
upperback -1.11541 3.96933 4.29696
thorax -2.91211 1.74112 -1.7419
lowerneck -19.0701 -4.04304 -5.45235
upperneck 17.7534 -5.26452 5.47159
head 9.00476 -2.27376 2.05983
rclavicle 3.56446e-014 2.90226e-014
rhumerus 7.56313 13.7474 -81.307
rradius 69.472
rwrist -7.48177
rhand -13.9178 -8.42115
rfingers 7.12502
rthumb 12.2084 -38.0449
lclavicle 3.56446e-014 2.90226e-014
lhumerus -57.7224 -4.53632 84.5748
lradius 42.6346
lwrist -0.738816
lhand -6.47361 10.9411
lfingers 7.12502
lthumb 19.377 39.9956
rfemur 1.47529 6.92521 38.7249
rtibia 19.4277
rfoot 709.649 -5.22075
rtoes 13.2439
lfemur -85.2655 10.004 -12.0184
ltibia 62.7874
lfoot 1270.06 8.66064
ltoes 1.46929
575
root -28.4655 18.1649 3.06876 1196.5 -77.1391 -1197.27
lowerback 3.91297 2.66077 10.6806
upperback -1.11893 4.06687 4.28146
thorax -2.94207 1.7894 -1.73978
lowerneck -19.1091 -4.1176 -5.52686
upperneck 17.7119 -5.34668 5.49909
head 9.00534 -2.31333 2.06949
rclavicle -2.75689e-014 -5.40694e-014
rhumerus 8.34439 13.744 -80.8238
rradius 69.496
rwrist -7.50813
rhand -13.865 -8.37537
rfingers 7.12502
rthumb 12.2593 -37.996
lclavicle -2.75689e-014 -5.40694e-014
lhumerus -58.4266 -4.60454 84.1413
lradius 43.0136
lwrist -0.540534
lhand -6.29856 10.8646
lfingers 7.12502
lthumb 19.5453 39.9021
rfemur 2.18885 6.98684 38.7977
rtibia 19.219
rfoot 709.524 -5.23005
rtoes 12.6259
lfemur -86.5877 9.72378 -12.0596
ltibia 63.6141
lfoot 1270.18 9.3186
ltoes 1.21171
576
root -28.6264 18.1666 3.06339 1196.44 -77.1347 -1197.23
lowerback 3.96699 2.72579 10.6203
upperback -1.11799 4.15947 4.262
thorax -2.96436 1.83607 -1.73448
lowerneck -19.1515 -4.18928 -5.59447
upperneck 17.6614 -5.42517 5.52315
head 9.00299 -2.35099 2.07726
rclavicle -1.13183e-014 -1.19271e-014
rhumerus 9.02298 13.6978 -80.3969
rradius 69.5199
rwrist -7.48689
rhand -13.8186 -8.33177
rfingers 7.12502
rthumb 12.304 -37.9498
lclavicle -1.13183e-014 -1.19271e-014
lhumerus -59.0402 -4.65747 83.7091
lradius 43.323
lwrist -0.345521
lhand -6.15233 10.7935
lfingers 7.12502
lthumb 19.6859 39.8167
rfemur 2.8706 7.06147 38.8516
rtibia 19.0616
rfoot 709.384 -5.20896
rtoes 11.9685
lfemur -87.7091 9.47683 -12.0887
ltibia 64.5664
lfoot 1270.31 10.0466
ltoes 1.01634
577
root -28.7874 18.166 3.05815 1196.45 -77.1375 -1197.25
lowerback 4.00767 2.7927 10.5499
upperback -1.11108 4.25159 4.23794
thorax -2.97329 1.88359 -1.72768
lowerneck -19.2051 -4.25925 -5.66953
upperneck 17.6055 -5.5017 5.56361
head 9.00149 -2.38623 2.09196
rclavicle 2.89915e-014 -2.14687e-014
rhumerus 9.6059 13.6203 -80.0188
rradius 69.5472
rwrist -7.44556
rhand -13.78 -8.30016
rfingers 7.12502
rthumb 12.3412 -37.9159
lclavicle 2.89915e-014 -2.14687e-014
lhumerus -59.559 -4.70547 83.2904
lradius 43.5672
lwrist -0.154254
lhand -6.04907 10.7363
lfingers 7.12502
lthumb 19.7852 39.7493
rfemur 3.51736 7.14074 38.8848
rtibia 18.953
rfoot 709.229 -5.15678
rtoes 11.2644
lfemur -88.6344 9.2715 -12.1114
ltibia 65.6305
lfoot 1270.43 10.813
ltoes 0.869956
578
root -28.9484 18.1632 3.05297 1196.55 -77.1406 -1197.36
lowerback 4.03211 2.86271 10.4732
upperback -1.09967 4.34469 4.20857
thorax -2.96835 1.93256 -1.72203
lowerneck -19.2565 -4.32477 -5.73887
upperneck 17.5379 -5.57379 5.60751
head 8.99528 -2.41869 2.1075
rclavicle 3.96575e-014 5.74488e-014
rhumerus 10.0906 13.5172 -79.6981
rradius 69.5759
rwrist -7.40083
rhand -13.7605 -8.27922
rfingers 7.12502
rthumb 12.36 -37.8939
lclavicle 3.96575e-014 5.74488e-014
lhumerus -59.9934 -4.75333 82.8901
lradius 43.7578
lwrist 0.0207098
lhand -5.99208 10.7077
lfingers 7.12502
lthumb 19.84 39.715
rfemur 4.13053 7.2259 38.9021
rtibia 18.885
rfoot 709.066 -5.07739
rtoes 10.5505
lfemur -89.3655 9.11732 -12.127
ltibia 66.7982
lfoot 1270.56 11.585
ltoes 0.690529
579
root -29.1096 18.1583 3.04795 1196.76 -77.1441 -1197.55
lowerback 4.03787 2.93664 10.3942
upperback -1.08735 4.44012 4.17195
thorax -2.95137 1.98336 -1.72162
lowerneck -19.3146 -4.3864 -5.80838
upperneck 17.47 -5.64242 5.66242
head 8.99043 -2.44823 2.12721
rclavicle -2.87368e-014 -3.00165e-014
rhumerus 10.4722 13.3877 -79.4402
rradius 69.611
rwrist -7.36215
rhand -13.738 -8.27265
rfingers 7.12502
rthumb 12.3817 -37.886
lclavicle -2.87368e-014 -3.00165e-014
lhumerus -60.3531 -4.80878 82.5129
lradius 43.906
lwrist 0.169164
lhand -5.97158 10.7201
lfingers 7.12502
lthumb 19.8597 39.7254
rfemur 4.70631 7.30232 38.9
rtibia 18.8553
rfoot 708.895 -4.96968
rtoes 9.83866
lfemur -89.9115 9.01338 -12.1391
ltibia 68.0599
lfoot 1270.71 12.3372
ltoes 0.44539
580
root -29.2709 18.1514 3.04289 1197.09 -77.1396 -1197.84
lowerback 4.01078 3.01715 10.3113
upperback -1.07423 4.53925 4.13341
thorax -2.91484 2.03699 -1.7192
lowerneck -19.3639 -4.44377 -5.87398
upperneck 17.3919 -5.70709 5.72164
head 8.98035 -2.4754 2.14838
rclavicle 2.65191e-014 4.96962e-015
rhumerus 10.7626 13.2502 -79.2307
rradius 69.6482
rwrist -7.34754
rhand -13.7195 -8.28576
rfingers 7.12502
rthumb 12.3996 -37.898
lclavicle 2.65191e-014 4.96962e-015
lhumerus -60.6403 -4.88071 82.1793
lradius 44.025
lwrist 0.296003
lhand -5.99906 10.7425
lfingers 7.12502
lthumb 19.8333 39.7506
rfemur 5.24314 7.37327 38.8877
rtibia 18.8504
rfoot 708.721 -4.84505
rtoes 9.14686
lfemur -90.2816 8.96518 -12.1409
ltibia 69.4118
lfoot 1270.88 13.0432
ltoes 0.107634
581
root -29.4322 18.1425 3.03771 1197.51 -77.1226 -1198.19
lowerback 3.95578 3.10167 10.2337
upperback -1.07183 4.64099 4.09072
thorax -2.87297 2.09172 -1.72246
lowerneck -19.4068 -4.49446 -5.93372
upperneck 17.3156 -5.76637 5.78795
head 8.96955 -2.49908 2.17185
rclavicle 1.05791e-014 3.10104e-014
rhumerus 10.9553 13.1044 -79.0846
rradius 69.6774
rwrist -7.34775
rhand -13.6876 -8.30393
rfingers 7.12502
rthumb 12.4303 -37.9143
lclavicle 1.05791e-014 3.10104e-014
lhumerus -60.8778 -4.96808 81.8794
lradius 44.1235
lwrist 0.394904
lhand -6.04135 10.7754
lfingers 7.12502
lthumb 19.7926 39.7876
rfemur 5.73084 7.43061 38.8686
rtibia 18.87
rfoot 708.548 -4.70295
rtoes 8.47708
lfemur -90.4863 8.97242 -12.1266
ltibia 70.8559
lfoot 1271.09 13.7175
ltoes -0.322998
582
root -29.5939 18.132 3.03241 1198 -77.0971 -1198.56
lowerback 3.86891 3.18625 10.1622
upperback -1.08305 4.73991 4.0437
thorax -2.82699 2.14472 -1.73155
lowerneck -19.438 -4.53815 -5.98725
upperneck 17.243 -5.82032 5.86092
head 8.95773 -2.51945 2.19747
rclavicle -1.81329e-014 -3.55825e-014
rhumerus 11.0523 12.9602 -78.9993
rradius 69.6959
rwrist -7.35973
rhand -13.6354 -8.32261
rfingers 7.12502
rthumb 12.4807 -37.9299
lclavicle -1.81329e-014 -3.55825e-014
lhumerus -61.0718 -5.07002 81.6126
lradius 44.2062
lwrist 0.465283
lhand -6.08359 10.7988
lfingers 7.12502
lthumb 19.752 39.8153
rfemur 6.1743 7.47067 38.8429
rtibia 18.8999
rfoot 708.381 -4.55177
rtoes 7.82939
lfemur -90.5224 9.01926 -12.0905
ltibia 72.4091
lfoot 1271.37 14.3957
ltoes -0.826919
583
root -29.7557 18.1199 3.0269 1198.55 -77.0612 -1198.97
lowerback 3.74525 3.27143 10.0961
upperback -1.11038 4.83624 3.99283
thorax -2.77676 2.19606 -1.74527
lowerneck -19.4702 -4.57499 -6.03857
upperneck 17.1805 -5.86843 5.94437
head 8.94952 -2.53584 2.22715
rclavicle -2.19595e-014 -7.07673e-014
rhumerus 11.0652 12.8261 -78.9692
rradius 69.6984
rwrist -7.37915
rhand -13.5687 -8.34597
rfingers 7.12502
rthumb 12.5449 -37.9494
lclavicle -2.19595e-014 -7.07673e-014
lhumerus -61.2237 -5.18248 81.3786
lradius 44.2826
lwrist 0.510561
lhand -6.10617 10.8113
lfingers 7.12502
lthumb 19.7303 39.83
rfemur 6.56362 7.4989 38.8107
rtibia 18.9401
rfoot 708.222 -4.39206
rtoes 7.2059
lfemur -90.4095 9.10861 -12.0335
ltibia 74.0599
lfoot 1271.74 15.1156
ltoes -1.32241
584
root -29.9179 18.1063 3.02124 1199.14 -77.0091 -1199.35
lowerback 3.58366 3.35533 10.0455
upperback -1.15719 4.92801 3.93979
thorax -2.72467 2.24429 -1.76714
lowerneck -19.4871 -4.60473 -6.07652
upperneck 17.1198 -5.91157 6.02661
head 8.93855 -2.54956 2.25511
rclavicle -1.00169e-014 5.08889e-014
rhumerus 10.9897 12.7049 -78.9978
rradius 69.6837
rwrist -7.39288
rhand -13.4818 -8.36014
rfingers 7.12502
rthumb 12.6287 -37.9584
lclavicle -1.00169e-014 5.08889e-014
lhumerus -61.344 -5.30893 81.1796
lradius 44.3565
lwrist 0.550565
lhand -6.11256 10.8028
lfingers 7.12502
lthumb 19.7242 39.8221
rfemur 6.90284 7.52032 38.7838
rtibia 18.9834
rfoot 708.071 -4.23117
rtoes 6.58991
lfemur -90.1506 9.23527 -11.9449
ltibia 75.8143
lfoot 1272.22 15.9527
ltoes -1.76624
585
root -30.0808 18.0914 3.01556 1199.76 -76.9508 -1199.72
lowerback 3.38009 3.43657 10.0019
upperback -1.2179 5.01198 3.88402
thorax -2.66344 2.28847 -1.79252
lowerneck -19.4999 -4.62863 -6.11308
upperneck 17.0626 -5.9496 6.11785
head 8.92806 -2.55998 2.28671
rclavicle -8.34274e-015 4.96962e-015
rhumerus 10.8353 12.6018 -79.0752
rradius 69.6563
rwrist -7.39818
rhand -13.3808 -8.37062
rfingers 7.12502
rthumb 12.7261 -37.9628
lclavicle -8.34274e-015 4.96962e-015
lhumerus -61.4216 -5.44255 81.0165
lradius 44.4287
lwrist 0.58837
lhand -6.09312 10.7918
lfingers 7.12502
lthumb 19.7428 39.8092
rfemur 7.20263 7.54026 38.7535
rtibia 19.0175
rfoot 707.929 -4.07258
rtoes 5.98211
lfemur -89.7471 9.3871 -11.8315
ltibia 77.6717
lfoot 1272.84 16.9987
ltoes -2.1058
586
root -30.2446 18.0753 3.00995 1200.38 -76.8862 -1200.06
lowerback 3.13932 3.51347 9.96963
upperback -1.29099 5.08652 3.82612
thorax -2.59399 2.32768 -1.8232
lowerneck -19.4935 -4.64699 -6.12946
upperneck 16.9965 -5.98327 6.19451
head 8.90973 -2.5691 2.31085
rclavicle 2.71714e-014 1.07344e-014
rhumerus 10.598 12.5179 -79.2028
rradius 69.6134
rwrist -7.38775
rhand -13.286 -8.36985
rfingers 7.12502
rthumb 12.8175 -37.9563
lclavicle 2.71714e-014 1.07344e-014
lhumerus -61.4651 -5.5836 80.8918
lradius 44.5037
lwrist 0.633913
lhand -6.07986 10.7631
lfingers 7.12502
lthumb 19.7556 39.7791
rfemur 7.47736 7.56525 38.7259
rtibia 19.0344
rfoot 707.797 -3.91898
rtoes 5.3948
lfemur -89.1971 9.55751 -11.6898
ltibia 79.631
lfoot 1273.63 18.3936
ltoes -2.35522
587
root -30.4097 18.0579 3.00458 1201 -76.8188 -1200.38
lowerback 2.86133 3.58664 9.94681
upperback -1.37153 5.15193 3.76598
thorax -2.51124 2.36244 -1.85815
lowerneck -19.4825 -4.66084 -6.15439
upperneck 16.9339 -6.01289 6.28958
head 8.89248 -2.57511 2.34332
rclavicle -6.77141e-014 -2.87244e-014
rhumerus 10.2848 12.4588 -79.3692
rradius 69.5611
rwrist -7.36813
rhand -13.1937 -8.37573
rfingers 7.12502
rthumb 12.9065 -37.9566
lclavicle -6.77141e-014 -2.87244e-014
lhumerus -61.4684 -5.7339 80.8078
lradius 44.5792
lwrist 0.683148
lhand -6.08041 10.7345
lfingers 7.12502
lthumb 19.7551 39.7506
rfemur 7.73786 7.59905 38.6983
rtibia 19.0297
rfoot 707.665 -3.77375
rtoes 4.80214
lfemur -88.5005 9.7389 -11.5226
ltibia 82.0447
lfoot 1276.56 37.3395
ltoes -2.56535
588
root -30.5763 18.0394 2.99958 1201.65 -76.7565 -1200.69
lowerback 2.55586 3.6548 9.92366
upperback -1.45833 5.20745 3.70173
thorax -2.42012 2.39242 -1.89463
lowerneck -19.4586 -4.67048 -6.16372
upperneck 16.8618 -6.0383 6.37084
head 8.86848 -2.57997 2.36923
rclavicle 4.63417e-015 -8.24956e-015
rhumerus 9.89814 12.433 -79.5701
rradius 69.4968
rwrist -7.34793
rhand -13.1223 -8.38954
rfingers 7.12502
rthumb 12.9753 -37.9661
lclavicle 4.63417e-015 -8.24956e-015
lhumerus -61.4385 -5.88683 80.7627
lradius 44.6538
lwrist 0.744795
lhand -6.12147 10.6899
lfingers 7.12502
lthumb 19.7156 39.7101
rfemur 7.99811 7.64619 38.6605
rtibia 18.9966
rfoot 707.539 -3.63373
rtoes 4.21269
lfemur -87.652 9.92509 -11.338
ltibia 84.8086
lfoot 1281.72 56.1621
ltoes -2.76051
